<svg width="1771" height="709" viewBox="0 0 1771 709" fill="none" xmlns="http://www.w3.org/2000/svg">
<path d="M1768.91 2C1745.64 33.0228 1695.04 42.0583 1660.66 56.1246C1644.31 62.8117 1626.71 61.7179 1610.03 66.7944C1592.19 72.2219 1574.6 75.3302 1555.9 75.3302C1539.6 75.3302 1525.69 81.7906 1509.73 82.314C1486.26 83.0835 1462.64 87.8694 1439.12 89.4918C1404.54 91.8765 1378.47 102.788 1349.68 118.979C1335.19 127.132 1322.09 137.316 1307.98 145.944C1291.89 155.775 1288.08 177.947 1273.06 186.295C1247.9 200.269 1226.42 215.218 1201.67 229.362C1197.09 231.978 1193.94 239.377 1187.7 242.942C1180.61 246.991 1176.27 255.9 1167.52 256.91C1161.53 257.601 1151.47 265.871 1145.6 269.131C1139.58 272.479 1131.35 274.346 1124.84 277.085C1097.05 288.786 1057.46 298.813 1025.13 298.813C1008.83 298.813 992.539 298.813 976.244 298.813C962.708 298.813 939.637 298.562 926.581 294.545C886.081 282.083 847.645 287.05 814.064 314.526C753.564 364.026 683.242 371.349 606.101 375.635C587.514 376.667 549.625 417.051 541.306 431.311C532.573 446.282 486.3 459.292 469.916 462.932C443.216 468.866 412.366 479.748 385.334 480.392C353.605 481.147 323.605 482.641 292.605 488.152C234.949 498.402 174.058 507.413 120.531 530.831C88.3635 544.904 60.5902 556.994 37.6951 582.433C24.5123 597.081 9.93826 620.138 5.68591 639.274C2.79769 652.271 2 665.975 2 679.431C2 694.525 6.63277 695.68 12.4757 707.366" stroke="url(#paint0_linear_1825_128)" stroke-opacity="0.1" stroke-width="3" stroke-linecap="round"/>
<defs>
<linearGradient id="paint0_linear_1825_128" x1="1768.91" y1="1.99996" x2="-3.68939" y2="561.279" gradientUnits="userSpaceOnUse">
<stop stop-color="white" stop-opacity="0"/>
<stop offset="0.25" stop-color="#999999"/>
</linearGradient>
</defs>
</svg>
